#!OML:ASF I:\Actors\actors\Patient Classification 2\Patient 1\Session 1\actor1.ASF
:FULLY-SPECIFIED
:DEGREES
416
root -0.392133 18.6418 6.49702 3.24661 -18.1146 -4.76194
lowerback 3.51551 -2.86216 -0.828789
upperback -1.97321 -3.81488 1.47567
thorax -3.84784 -1.85807 2.24008
lowerneck 9.6912 -22.486 -16.9446
upperneck -0.279796 -32.4987 20.5178
head 4.49678 -16.5964 6.60609
rclavicle -6.14866e-014 -7.95139e-016
rhumerus 26.3142 7.90242 -70.2042
rradius 87.6865
rwrist 2.13068
rhand -25.0539 -38.7319
rfingers 7.12502
rthumb 1.45949 -68.7066
lclavicle -6.14866e-014 -7.95139e-016
lhumerus -52.3689 -1.53856 88.1918
lradius 48.5928
lwrist 0.34924
lhand -5.09446 -25.6065
lfingers 7.12502
lthumb 20.7027 3.30923
rfemur 0 0 0
rtibia 0
rfoot 0 0
rtoes 0
lfemur 0.655508 -1.9161 -13.0491
ltibia 21.3932
lfoot -31.7327 21.1617
ltoes -51.6891
417
root -0.39295 18.642 6.49775 3.28544 -18.1033 -4.8013
lowerback 3.48078 -2.87139 -0.810938
upperback -1.95576 -3.82572 1.49276
thorax -3.80967 -1.86433 2.24564
lowerneck 9.63546 -22.4519 -16.9747
upperneck -0.261437 -32.457 20.5753
head 4.51873 -16.573 6.62162
rclavicle 5.0131e-014 -2.34566e-014
rhumerus 25.1373 7.85931 -70.54
rradius 88.4552
rwrist 2.46667
rhand -25.0342 -38.2806
rfingers 7.12502
rthumb 1.47857 -68.2552
lclavicle 5.0131e-014 -2.34566e-014
lhumerus -52.3254 -1.50733 88.1931
lradius 48.5435
lwrist 0.222942
lhand -5.01104 -25.7349
lfingers 7.12502
lthumb 20.7828 3.17206
rfemur 0 0 0
rtibia 0
rfoot 0 0
rtoes 0
lfemur 0.614135 -1.83118 -12.9844
ltibia 21.4068
lfoot -31.6734 21.1171
ltoes -51.7474
418
root -0.394196 18.6425 6.499 3.30082 -18.1074 -4.82671
lowerback 3.48692 -2.85631 -0.811739
upperback -1.94602 -3.80548 1.49815
thorax -3.80349 -1.85429 2.25036
lowerneck 9.53106 -22.4701 -16.926
upperneck -0.17773 -32.4713 20.5123
head 4.54335 -16.5712 6.58195
rclavicle 1.52195e-014 -1.43125e-014
rhumerus 25.0856 7.8609 -70.494
rradius 88.4506
rwrist 2.48203
rhand -25.2123 -38.1114
rfingers 7.12502
rthumb 1.30656 -68.0872
lclavicle 1.52195e-014 -1.43125e-014
lhumerus -52.3073 -1.5447 88.2131
lradius 48.4958
lwrist 0.135672
lhand -5.10624 -25.8358
lfingers 7.12502
lthumb 20.6913 3.08115
rfemur 0 0 0
rtibia 0
rfoot 0 0
rtoes 0
lfemur 0.602106 -1.75145 -12.9414
ltibia 21.4154
lfoot -31.5954 21.0788
ltoes -51.7987
419
root -0.395161 18.6428 6.49973 3.30178 -18.1067 -4.83676
lowerback 3.53098 -2.83062 -0.820828
upperback -1.95292 -3.77187 1.49167
thorax -3.8368 -1.8369 2.24953
lowerneck 9.43252 -22.5172 -16.8209
upperneck -0.0661665 -32.5157 20.3631
head 4.55618 -16.5831 6.51127
rclavicle 8.42971e-015 -8.74653e-015
rhumerus 25.0068 7.81385 -70.4821
rradius 88.4589
rwrist 2.39128
rhand -25.2681 -37.7547
rfingers 7.12502
rthumb 1.25266 -67.7308
lclavicle 8.42971e-015 -8.74653e-015
lhumerus -52.3439 -1.61851 88.2382
lradius 48.5019
lwrist 0.144291
lhand -5.16289 -25.8987
lfingers 7.12502
lthumb 20.6369 3.02422
rfemur 0 0 0
rtibia 0
rfoot 0 0
rtoes 0
lfemur 0.61143 -1.83584 -12.9463
ltibia 21.418
lfoot -31.6566 21.1345
ltoes -51.7825
420
root -0.395326 18.6426 6.49982 3.30537 -18.11 -4.82431
lowerback 3.58415 -2.81206 -0.834645
upperback -1.98308 -3.74827 1.47834
thorax -3.89914 -1.82396 2.24632
lowerneck 9.44829 -22.5181 -16.7834
upperneck -0.0402125 -32.5147 20.3177
head 4.5474 -16.5828 6.49887
rclavicle 2.02326e-014 -7.15625e-015
rhumerus 24.9126 7.78374 -70.4849
rradius 88.4457
rwrist 2.39664
rhand -25.1397 -37.3822
rfingers 7.12502
rthumb 1.37665 -67.3575
lclavicle 2.02326e-014 -7.15625e-015
lhumerus -52.4253 -1.63652 88.2418
lradius 48.548
lwrist 0.163566
lhand -5.2444 -25.8982
lfingers 7.12502
lthumb 20.5586 3.03318
rfemur 0 0 0
rtibia 0
rfoot 0 0
rtoes 0
lfemur 0.613014 -1.9287 -12.9784
ltibia 21.4161
lfoot -31.7491 21.1934
ltoes -51.7706
421
root -0.395967 18.6419 6.50099 3.30876 -18.1125 -4.8119
lowerback 3.59687 -2.80656 -0.84124
upperback -1.99389 -3.74163 1.46761
thorax -3.91812 -1.8203 2.23968
lowerneck 9.49686 -22.4847 -16.7904
upperneck -0.0779245 -32.475 20.3705
head 4.53251 -16.568 6.52837
rclavicle 3.75827e-014 5.56597e-015
rhumerus 24.8713 7.78784 -70.4826
rradius 88.4376
rwrist 2.49403
rhand -25.1431 -37.525
rfingers 7.12502
rthumb 1.37336 -67.5003
lclavicle 3.75827e-014 5.56597e-015
lhumerus -52.4521 -1.60185 88.2246
lradius 48.5514
lwrist 0.165303
lhand -5.32063 -25.841
lfingers 7.12502
lthumb 20.4853 3.09834
rfemur 0 0 0
rtibia 0
rfoot 0 0
rtoes 0
lfemur 0.611186 -1.92867 -12.9922
ltibia 21.414
lfoot -31.7429 21.1796
ltoes -51.7439
422
root -0.397116 18.6415 6.50282 3.31865 -18.1107 -4.81265
lowerback 3.57652 -2.80978 -0.848006
upperback -1.98133 -3.74615 1.47154
thorax -3.89271 -1.82273 2.2461
lowerneck 9.46614 -22.4714 -16.7944
upperneck -0.0703259 -32.456 20.3864
head 4.5397 -16.5569 6.53162
rclavicle -3.19174e-014 -1.43125e-014
rhumerus 24.9026 7.8131 -70.4772
rradius 88.4519
rwrist 2.50874
rhand -25.0945 -37.9665
rfingers 7.12502
rthumb 1.42031 -67.9416
lclavicle -3.19174e-014 -1.43125e-014
lhumerus -52.4322 -1.55853 88.2139
lradius 48.5263
lwrist 0.148151
lhand -5.3209 -25.7915
lfingers 7.12502
lthumb 20.4851 3.14784
rfemur 0 0 0
rtibia 0
rfoot 0 0
rtoes 0
lfemur 0.604634 -1.90719 -12.9883
ltibia 21.417
lfoot -31.7275 21.169
ltoes -51.753
423
root -0.397609 18.642 6.50378 3.33102 -18.1102 -4.83163
lowerback 3.57527 -2.81311 -0.839437
upperback -1.98001 -3.74974 1.48371
thorax -3.89021 -1.82464 2.25397
lowerneck 9.488 -22.4496 -16.862
upperneck -0.0647036 -32.4415 20.4334
head 4.55473 -16.5513 6.55281
rclavicle -3.37375e-014 1.15295e-014
rhumerus 24.9092 7.83691 -70.4815
rradius 88.4443
rwrist 2.45408
rhand -24.9576 -38.3685
rfingers 7.12502
rthumb 1.55256 -68.3426
lclavicle -3.37375e-014 1.15295e-014
lhumerus -52.447 -1.52368 88.2124
lradius 48.5279
lwrist 0.0820954
lhand -5.37428 -25.7347
lfingers 7.12502
lthumb 20.4338 3.21014
rfemur 0 0 0
rtibia 0
rfoot 0 0
rtoes 0
lfemur 0.600957 -1.91137 -12.9707
ltibia 21.4232
lfoot -31.7752 21.1872
ltoes -51.8077
424
root -0.397631 18.642 6.50419 3.33897 -18.0921 -4.85926
lowerback 3.5807 -2.81101 -0.798004
upperback -1.9809 -3.74465 1.48604
thorax -3.8969 -1.82308 2.23334
lowerneck 9.58184 -22.4191 -16.9729
upperneck -0.104104 -32.4286 20.5488
head 4.5648 -16.5526 6.60523
rclavicle -6.72016e-014 1.35174e-014
rhumerus 26.0964 7.88576 -70.1979
rradius 87.6132
rwrist 2.12453
rhand -24.9406 -38.8062
rfingers 7.12502
rthumb 1.56891 -68.7801
lclavicle -6.72016e-014 1.35174e-014
lhumerus -52.4677 -1.53212 88.2137
lradius 48.5404
lwrist 0.0677265
lhand -5.3337 -25.7041
lfingers 7.12502
lthumb 20.4728 3.23658
rfemur 0 0 0
rtibia 0
rfoot 0 0
rtoes 0
lfemur 0.596753 -1.91856 -12.9354
ltibia 21.4271
lfoot -31.8329 21.1529
ltoes -51.7978
425
root -0.397899 18.642 6.50503 3.34651 -18.0616 -4.8479
lowerback 3.56652 -2.81285 -0.793021
upperback -1.98045 -3.74706 1.47932
thorax -3.88907 -1.82459 2.22294
lowerneck 9.62632 -22.399 -17.0455
upperneck -0.126145 -32.4175 20.6166
head 4.57319 -16.5509 6.63572
rclavicle -5.9449e-015 -1.39149e-014
rhumerus 26.4835 7.89259 -70.1013
rradius 87.3373
rwrist 1.9716
rhand -25.0651 -38.8756
rfingers 7.12502
rthumb 1.44869 -68.8505
lclavicle -5.9449e-015 -1.39149e-014
lhumerus -52.4717 -1.56225 88.228
lradius 48.5242
lwrist 0.0908486
lhand -5.2223 -25.738
lfingers 7.12502
lthumb 20.5798 3.1911
rfemur 0 0 0
rtibia 0
rfoot 0 0
rtoes 0
lfemur 0.577643 -1.8922 -12.9326
ltibia 21.4262
lfoot -31.8333 21.0966
ltoes -51.7984
426
root -0.398171 18.6428 6.50599 3.35852 -18.0273 -4.81936
lowerback 3.54925 -2.82565 -0.821338
upperback -1.98425 -3.76573 1.47649
thorax -3.88085 -1.83328 2.2361
lowerneck 9.62433 -22.3755 -17.0771
upperneck -0.123901 -32.3896 20.6296
head 4.57655 -16.5372 6.646
rclavicle 3.83965e-014 1.19271e-014
rhumerus 26.4713 7.91053 -70.1185
rradius 87.3254
rwrist 1.95628
rhand -25.2675 -38.8746
rfingers 7.12502
rthumb 1.25317 -68.8507
lclavicle 3.83965e-014 1.19271e-014
lhumerus -52.4767 -1.56696 88.2396
lradius 48.4985
lwrist 0.0509798
lhand -5.24986 -25.8158
lfingers 7.12502
lthumb 20.5533 3.1162
rfemur 0 0 0
rtibia 0
rfoot 0 0
rtoes 0
lfemur 0.552676 -1.89134 -12.9567
ltibia 21.4226
lfoot -31.7707 21.1195
ltoes -51.8707
427
root -0.398537 18.6432 6.50622 3.36878 -18.0059 -4.81873
lowerback 3.5487 -2.83322 -0.825355
upperback -1.98703 -3.77616 1.47306
thorax -3.88296 -1.83837 2.23555
lowerneck 9.65156 -22.3566 -17.084
upperneck -0.142299 -32.3683 20.6628
head 4.57027 -16.5294 6.6634
rclavicle -6.00392e-014 -1.66979e-014
rhumerus 26.4288 7.9234 -70.1531
rradius 87.3039
rwrist 1.97802
rhand -25.4915 -38.7679
rfingers 7.12502
rthumb 1.03683 -68.7451
lclavicle -6.00392e-014 -1.66979e-014
lhumerus -52.4786 -1.5724 88.2255
lradius 48.4804
lwrist 0.0194778
lhand -5.27368 -25.8931
lfingers 7.12502
lthumb 20.5304 3.04136
rfemur 0 0 0
rtibia 0
rfoot 0 0
rtoes 0
lfemur 0.540821 -1.90357 -12.9552
ltibia 21.4196
lfoot -31.6847 21.1438
ltoes -51.866
428
root -0.399779 18.6432 6.50654 3.37025 -18.0035 -4.82274
lowerback 3.56085 -2.83254 -0.828423
upperback -2.00001 -3.77561 1.46704
thorax -3.90352 -1.83775 2.23226
lowerneck 9.71725 -22.3455 -17.0942
upperneck -0.157982 -32.3638 20.6968
head 4.56268 -16.5322 6.68295
rclavicle -7.18047e-014 -2.38542e-015
rhumerus 26.3624 7.93263 -70.18
rradius 87.2913
rwrist 2.03101
rhand -25.6053 -38.6381
rfingers 7.12502
rthumb 0.926948 -68.6158
lclavicle -7.18047e-014 -2.38542e-015
lhumerus -52.5008 -1.57243 88.2045
lradius 48.4727
lwrist 0.000198423
lhand -5.23839 -25.8943
lfingers 7.12502
lthumb 20.5644 3.03648
rfemur 0 0 0
rtibia 0
rfoot 0 0
rtoes 0
lfemur 0.541849 -1.88357 -12.9425
ltibia 21.4172
lfoot -31.6241 21.0996
ltoes -51.8099
